<svg xmlns="http://www.w3.org/2000/svg" xmlns:xlink="http://www.w3.org/1999/xlink" width="500" zoomAndPan="magnify" viewBox="0 0 375 374.999991" height="500" preserveAspectRatio="xMidYMid meet" version="1.0"><defs><g/></defs><g fill="#3381ba" fill-opacity="1"><g transform="translate(63.441387, 203.249987)"><g><path d="M 11.734375 -47.921875 L 11.734375 -38.328125 L 25.46875 -38.328125 L 25.46875 -31.625 L 11.734375 -31.625 L 11.734375 -11.265625 C 11.734375 -9.609375 12.160156 -8.429688 13.015625 -7.734375 C 13.867188 -7.046875 15.117188 -6.703125 16.765625 -6.703125 L 25.46875 -6.703125 L 25.46875 0 L 15.8125 0 C 12.300781 0 9.570312 -1.101562 7.625 -3.3125 C 5.6875 -5.519531 4.71875 -8.460938 4.71875 -12.140625 L 4.71875 -47.921875 Z M 11.734375 -47.921875 "/></g></g></g><g fill="#3381ba" fill-opacity="1"><g transform="translate(83.882603, 203.249987)"><g><path d="M 22.359375 -32.421875 L 21.484375 -32.421875 C 14.191406 -32.421875 10.546875 -27.65625 10.546875 -18.125 L 10.546875 0 L 3.515625 0 L 3.515625 -38.328125 L 10.21875 -38.328125 L 10.21875 -33.9375 L 10.375 -33.9375 C 11.65625 -35.75 13.066406 -37.066406 14.609375 -37.890625 C 16.160156 -38.710938 18.34375 -39.125 21.15625 -39.125 L 22.359375 -39.125 Z M 22.359375 -32.421875 "/></g></g></g><g fill="#3381ba" fill-opacity="1"><g transform="translate(99.931989, 203.249987)"><g><path d="M 41.203125 0 L 34.1875 0 L 34.1875 -21.796875 C 34.1875 -23.398438 33.878906 -24.851562 33.265625 -26.15625 C 32.648438 -27.457031 31.78125 -28.570312 30.65625 -29.5 C 29.539062 -30.4375 28.222656 -31.15625 26.703125 -31.65625 C 25.191406 -32.164062 23.53125 -32.421875 21.71875 -32.421875 C 19.851562 -32.421875 18.148438 -32.070312 16.609375 -31.375 C 15.066406 -30.6875 13.734375 -29.742188 12.609375 -28.546875 C 11.492188 -27.347656 10.628906 -25.9375 10.015625 -24.3125 C 9.410156 -22.6875 9.109375 -20.914062 9.109375 -19 C 9.109375 -17.195312 9.410156 -15.507812 10.015625 -13.9375 C 10.628906 -12.363281 11.492188 -10.976562 12.609375 -9.78125 C 13.734375 -8.582031 15.066406 -7.632812 16.609375 -6.9375 C 18.148438 -6.25 19.828125 -5.90625 21.640625 -5.90625 C 23.660156 -5.90625 25.46875 -6.394531 27.0625 -7.375 C 28.664062 -8.363281 30.082031 -9.632812 31.3125 -11.1875 L 31.3125 -2.875 C 29.8125 -1.707031 28.273438 -0.800781 26.703125 -0.15625 C 25.140625 0.476562 23.210938 0.796875 20.921875 0.796875 C 18.265625 0.796875 15.773438 0.28125 13.453125 -0.75 C 11.140625 -1.789062 9.144531 -3.21875 7.46875 -5.03125 C 5.789062 -6.84375 4.472656 -9 3.515625 -11.5 C 2.554688 -14 2.078125 -16.6875 2.078125 -19.5625 C 2.078125 -22.4375 2.554688 -25.082031 3.515625 -27.5 C 4.472656 -29.925781 5.828125 -31.988281 7.578125 -33.6875 C 9.335938 -35.394531 11.425781 -36.726562 13.84375 -37.6875 C 16.269531 -38.644531 18.945312 -39.125 21.875 -39.125 C 24.8125 -39.125 27.476562 -38.6875 29.875 -37.8125 C 32.269531 -36.9375 34.300781 -35.710938 35.96875 -34.140625 C 37.644531 -32.566406 38.9375 -30.6875 39.84375 -28.5 C 40.75 -26.320312 41.203125 -23.90625 41.203125 -21.25 Z M 41.203125 0 "/></g></g></g><g fill="#3381ba" fill-opacity="1"><g transform="translate(138.18009, 203.249987)"><g><path d="M 6.625 -38.328125 L 17.8125 -8.625 L 28.90625 -38.328125 L 36.578125 -38.328125 L 23.15625 -3.03125 C 22.570312 -1.488281 21.867188 -0.46875 21.046875 0.03125 C 20.222656 0.539062 19.117188 0.796875 17.734375 0.796875 C 16.347656 0.796875 15.238281 0.539062 14.40625 0.03125 C 13.582031 -0.46875 12.878906 -1.488281 12.296875 -3.03125 L -1.03125 -38.328125 Z M 6.625 -38.328125 "/></g></g></g><g fill="#3381ba" fill-opacity="1"><g transform="translate(167.484826, 203.249987)"><g><path d="M 14.9375 -12.625 L 12.0625 -18.203125 L 30.984375 -28.75 C 29.648438 -30.082031 28.382812 -31.023438 27.1875 -31.578125 C 25.988281 -32.140625 24.351562 -32.421875 22.28125 -32.421875 C 20.414062 -32.421875 18.722656 -32.097656 17.203125 -31.453125 C 15.691406 -30.816406 14.375 -29.914062 13.25 -28.75 C 12.132812 -27.582031 11.269531 -26.1875 10.65625 -24.5625 C 10.050781 -22.9375 9.75 -21.140625 9.75 -19.171875 C 9.75 -17.203125 10.050781 -15.40625 10.65625 -13.78125 C 11.269531 -12.15625 12.132812 -10.753906 13.25 -9.578125 C 14.375 -8.410156 15.691406 -7.503906 17.203125 -6.859375 C 18.722656 -6.222656 20.414062 -5.90625 22.28125 -5.90625 C 25.957031 -5.90625 28.789062 -6.847656 30.78125 -8.734375 C 32.78125 -10.628906 34.234375 -13.679688 35.140625 -17.890625 L 42.25 -17.015625 C 41.976562 -14.347656 41.296875 -11.910156 40.203125 -9.703125 C 39.117188 -7.492188 37.679688 -5.613281 35.890625 -4.0625 C 34.109375 -2.519531 32.0625 -1.320312 29.75 -0.46875 C 27.4375 0.375 24.945312 0.796875 22.28125 0.796875 C 19.5625 0.796875 16.988281 0.289062 14.5625 -0.71875 C 12.144531 -1.726562 10.046875 -3.109375 8.265625 -4.859375 C 6.484375 -6.617188 5.054688 -8.722656 3.984375 -11.171875 C 2.921875 -13.628906 2.390625 -16.296875 2.390625 -19.171875 C 2.390625 -22.097656 2.9375 -24.785156 4.03125 -27.234375 C 5.125 -29.679688 6.570312 -31.78125 8.375 -33.53125 C 10.1875 -35.289062 12.289062 -36.660156 14.6875 -37.640625 C 17.082031 -38.628906 19.613281 -39.125 22.28125 -39.125 C 26.800781 -39.125 30.566406 -38.03125 33.578125 -35.84375 C 36.585938 -33.664062 39 -30.71875 40.8125 -27 Z M 14.9375 -12.625 "/></g></g></g><g fill="#3381ba" fill-opacity="1"><g transform="translate(205.732923, 203.249987)"><g><path d="M 12.375 -55.90625 L 12.375 0 L 5.34375 0 L 5.34375 -55.90625 Z M 12.375 -55.90625 "/></g></g></g><g fill="#ff5353" fill-opacity="1"><g transform="translate(217.320283, 203.249987)"><g><path d="M 15.328125 -46.875 C 15.328125 -45.8125 14.96875 -44.835938 14.25 -43.953125 C 13.53125 -43.078125 12.476562 -42.640625 11.09375 -42.640625 C 9.71875 -42.640625 8.671875 -43.078125 7.953125 -43.953125 C 7.234375 -44.835938 6.875 -45.8125 6.875 -46.875 C 6.875 -47.9375 7.234375 -48.90625 7.953125 -49.78125 C 8.671875 -50.664062 9.71875 -51.109375 11.09375 -51.109375 C 12.476562 -51.109375 13.53125 -50.664062 14.25 -49.78125 C 14.96875 -48.90625 15.328125 -47.9375 15.328125 -46.875 Z M 14.609375 -38.328125 L 14.609375 0 L 7.59375 0 L 7.59375 -38.328125 Z M 14.609375 -38.328125 "/></g></g></g><g fill="#ff5353" fill-opacity="1"><g transform="translate(233.369669, 203.249987)"><g><path d="M 36.34375 0 L 29.3125 0 L 29.3125 -22.59375 C 29.3125 -23.875 29.070312 -25.113281 28.59375 -26.3125 C 28.113281 -27.507812 27.457031 -28.5625 26.625 -29.46875 C 25.800781 -30.375 24.816406 -31.09375 23.671875 -31.625 C 22.535156 -32.15625 21.300781 -32.421875 19.96875 -32.421875 C 18.6875 -32.421875 17.472656 -32.164062 16.328125 -31.65625 C 15.179688 -31.15625 14.179688 -30.453125 13.328125 -29.546875 C 12.484375 -28.640625 11.820312 -27.585938 11.34375 -26.390625 C 10.863281 -25.191406 10.625 -23.925781 10.625 -22.59375 L 10.625 0 L 3.59375 0 L 3.59375 -22.515625 C 3.59375 -24.859375 3.976562 -27.039062 4.75 -29.0625 C 5.519531 -31.09375 6.625 -32.851562 8.0625 -34.34375 C 9.5 -35.832031 11.226562 -37 13.25 -37.84375 C 15.28125 -38.695312 17.519531 -39.125 19.96875 -39.125 C 22.414062 -39.125 24.632812 -38.695312 26.625 -37.84375 C 28.625 -37 30.34375 -35.832031 31.78125 -34.34375 C 33.21875 -32.851562 34.335938 -31.109375 35.140625 -29.109375 C 35.941406 -27.109375 36.34375 -24.96875 36.34375 -22.6875 Z M 36.34375 0 "/></g></g></g><g fill="#ff5353" fill-opacity="1"><g transform="translate(267.146092, 203.249987)"><g><path d="M 41.203125 -55.90625 L 41.203125 -19.96875 C 41.203125 -16.988281 40.734375 -14.234375 39.796875 -11.703125 C 38.867188 -9.171875 37.566406 -6.984375 35.890625 -5.140625 C 34.210938 -3.304688 32.175781 -1.859375 29.78125 -0.796875 C 27.382812 0.265625 24.75 0.796875 21.875 0.796875 C 18.789062 0.796875 16.023438 0.253906 13.578125 -0.828125 C 11.128906 -1.921875 9.050781 -3.425781 7.34375 -5.34375 C 5.644531 -7.257812 4.34375 -9.484375 3.4375 -12.015625 C 2.53125 -14.546875 2.078125 -17.25 2.078125 -20.125 C 2.078125 -22.789062 2.582031 -25.28125 3.59375 -27.59375 C 4.601562 -29.90625 5.945312 -31.910156 7.625 -33.609375 C 9.300781 -35.316406 11.253906 -36.660156 13.484375 -37.640625 C 15.722656 -38.628906 18.070312 -39.125 20.53125 -39.125 C 22.445312 -39.125 24.304688 -38.910156 26.109375 -38.484375 C 27.921875 -38.066406 29.679688 -37.378906 31.390625 -36.421875 L 31.390625 -29.0625 C 30.109375 -29.96875 28.578125 -30.753906 26.796875 -31.421875 C 25.015625 -32.085938 23.320312 -32.421875 21.71875 -32.421875 C 17.882812 -32.421875 14.820312 -31.222656 12.53125 -28.828125 C 10.25 -26.429688 9.109375 -23.238281 9.109375 -19.25 C 9.109375 -17.28125 9.425781 -15.46875 10.0625 -13.8125 C 10.695312 -12.164062 11.585938 -10.753906 12.734375 -9.578125 C 13.878906 -8.410156 15.222656 -7.503906 16.765625 -6.859375 C 18.316406 -6.222656 20.019531 -5.90625 21.875 -5.90625 C 23.6875 -5.90625 25.351562 -6.273438 26.875 -7.015625 C 28.394531 -7.765625 29.695312 -8.804688 30.78125 -10.140625 C 31.875 -11.472656 32.710938 -13.082031 33.296875 -14.96875 C 33.890625 -16.863281 34.1875 -18.957031 34.1875 -21.25 L 34.1875 -55.90625 Z M 41.203125 -55.90625 "/></g></g></g></svg>